<?xml version="1.0" encoding="UTF-8" standalone="no"?>
<!-- Created with Inkscape (http://www.inkscape.org/) -->

<svg
   version="1.1"
   id="svg25"
   xml:space="preserve"
   width="680.32001"
   height="117.3144"
   viewBox="0 0 680.32001 117.3144"
   sodipodi:docname="sift-logo-text.svg"
   inkscape:version="1.1.2 (0a00cf5339, 2022-02-04)"
   xmlns:inkscape="http://www.inkscape.org/namespaces/inkscape"
   xmlns:sodipodi="http://sodipodi.sourceforge.net/DTD/sodipodi-0.dtd"
   xmlns="http://www.w3.org/2000/svg"
   xmlns:svg="http://www.w3.org/2000/svg"><defs
     id="defs29"><linearGradient
       x1="0"
       y1="0"
       x2="1"
       y2="0"
       gradientUnits="userSpaceOnUse"
       gradientTransform="matrix(0,61.08963,61.08963,0,255.12012,26.514648)"
       spreadMethod="pad"
       id="linearGradient59"><stop
         style="stop-opacity:1;stop-color:#0f7174"
         offset="0"
         id="stop45" /><stop
         style="stop-opacity:1;stop-color:#5cbec3"
         offset="0.26151801"
         id="stop47" /><stop
         style="stop-opacity:1;stop-color:#5cbec3"
         offset="0.300003"
         id="stop49" /><stop
         style="stop-opacity:1;stop-color:#b3e1eb"
         offset="0.5"
         id="stop51" /><stop
         style="stop-opacity:1;stop-color:#b3e1eb"
         offset="0.53178104"
         id="stop53" /><stop
         style="stop-opacity:1;stop-color:#5cbec3"
         offset="0.699997"
         id="stop55" /><stop
         style="stop-opacity:1;stop-color:#0f7174"
         offset="1"
         id="stop57" /></linearGradient><linearGradient
       x1="0"
       y1="0"
       x2="1"
       y2="0"
       gradientUnits="userSpaceOnUse"
       gradientTransform="matrix(498.62079,0,0,-498.62079,2.1088867,56.885742)"
       spreadMethod="pad"
       id="linearGradient85"><stop
         style="stop-opacity:1;stop-color:#b201b5"
         offset="0"
         id="stop75" /><stop
         style="stop-opacity:1;stop-color:#b201b5"
         offset="0.14523713"
         id="stop77" /><stop
         style="stop-opacity:1;stop-color:#5f2a60"
         offset="0.552155"
         id="stop79" /><stop
         style="stop-opacity:1;stop-color:#5f2a60"
         offset="0.77204033"
         id="stop81" /><stop
         style="stop-opacity:1;stop-color:#231f20"
         offset="1"
         id="stop83" /></linearGradient><clipPath
       clipPathUnits="userSpaceOnUse"
       id="clipPath95"><path
         d="M 0,87.986 H 510.24 V 0 H 0 Z"
         id="path93" /></clipPath></defs><sodipodi:namedview
     id="namedview27"
     pagecolor="#ffffff"
     bordercolor="#666666"
     borderopacity="1.0"
     inkscape:pageshadow="2"
     inkscape:pageopacity="0.0"
     inkscape:pagecheckerboard="0"
     showgrid="false"
     inkscape:zoom="2.4238593"
     inkscape:cx="340.16"
     inkscape:cy="58.79054"
     inkscape:window-width="1862"
     inkscape:window-height="1016"
     inkscape:window-x="58"
     inkscape:window-y="27"
     inkscape:window-maximized="1"
     inkscape:current-layer="g31" /><g
     id="g31"
     inkscape:groupmode="layer"
     inkscape:label="sift-logo-text"
     transform="matrix(1.3333333,0,0,-1.3333333,0,117.3144)"><g
       id="g33"><g
         id="g35"><g
           id="g41"><g
             id="g43"><path
               d="M 0,25.787 H 510.241 V 87.986 L 0,87.986 Z"
               style="fill:url(#linearGradient59);stroke:none"
               id="path61" /></g></g></g></g><g
       id="g63"><g
         id="g65"><g
           id="g71"><g
             id="g73"><path
               d="M 0,78.82 V 34.952 h 182.713 v 0.097 l 318.204,20.908 v 1.876 L 182.713,78.718 v 0.102 z"
               style="fill:url(#linearGradient85);stroke:none"
               id="path87" /></g></g></g></g><g
       id="g89"><g
         id="g91"
         clip-path="url(#clipPath95)"><g
           id="g97"
           transform="translate(248.457,39.3691)"><path
             d="m 0,0 -4.366,-0.245 c 2.244,2.424 9.474,12.852 9.474,17.761 0,4.847 -7.226,15.396 -9.468,17.803 L 0,35.033 C 0.936,34.028 9.129,24.808 9.129,17.516 9.129,10.142 0.935,1.008 0,0"
             style="fill:#ea05ea;fill-opacity:1;fill-rule:nonzero;stroke:none"
             id="path99" /></g><g
           id="g101"
           transform="translate(310.623,43.4521)"><path
             d="m 0,0 -5.275,-0.347 c 1.607,1.817 7.961,10.372 7.961,13.78 -0.003,2.924 -5.716,11.146 -7.961,13.784 l 5.24,-0.325 C 0.657,26.078 6.733,18.787 6.734,13.433 6.734,7.886 0.697,0.785 0,0"
             style="fill:#ea05ea;fill-opacity:1;fill-rule:nonzero;stroke:none"
             id="path103" /></g><g
           id="g105"
           transform="translate(367.9805,47.2227)"><path
             d="m 0,0 -2.729,-0.18 c 0.038,0.037 5.324,5.409 5.324,9.842 -0.002,4.269 -5.286,9.813 -5.324,9.852 l 2.711,-0.143 C 0.173,19.186 4.618,14.792 4.619,9.662 4.619,4.352 0.19,0.182 0,0"
             style="fill:#ea05ea;fill-opacity:1;fill-rule:nonzero;stroke:none"
             id="path107" /></g><g
           id="g109"
           transform="translate(431.9131,51.4229)"><path
             d="m 0,0 -3.126,-0.206 c 0.225,0.064 4.259,3.077 4.259,5.631 0,2.546 -4.266,5.707 -4.29,5.721 L 0,10.939 C 0.146,10.866 3.158,9.206 3.158,5.425 3.158,2.09 1.305,0.354 0,0"
             style="fill:#ea05ea;fill-opacity:1;fill-rule:nonzero;stroke:none"
             id="path111" /></g></g></g><text
       transform="matrix(1,0,0,-0.86939884,6.1826,39.125)"
       style="font-style:italic;font-variant:normal;font-weight:600;font-stretch:normal;font-size:61.8287px;font-family:'ITC Eras Std Demi';-inkscape-font-specification:ITCErasStd-Demi;writing-mode:lr-tb;fill:#ffffff;fill-opacity:1;fill-rule:nonzero;stroke:none"
       id="text115"><tspan
         x="0 32.460068 50.761364 86.251038"
         y="0"
         sodipodi:role="line"
         id="tspan113">SIFT</tspan></text><text
       transform="matrix(1,0,0,-0.87703591,8.5312,7)"
       style="font-style:italic;font-variant:normal;font-weight:600;font-stretch:normal;font-size:27.3649px;font-family:'ITC Eras Std Demi';-inkscape-font-specification:ITCErasStd-Demi;writing-mode:lr-tb;fill:#000000;fill-opacity:1;fill-rule:nonzero;stroke:none"
       id="text119"><tspan
         x="0 14.366572 38.885525 54.428787 65.07373 75.280838 83.928146 92.02816 109.65115 119.2836 136.19511 146.84006 171.35901 186.90227 197.10938 204.55263 221.46414 239.08713 247.73444 263.44189 270.88513 287.79666 311.71356 320.36087 333.35922 348.71091 362.09235 379.71536 397.33835 414.24985 421.69312 438.60461 456.09079 463.53403 478.88574"
         y="0"
         sodipodi:role="line"
         id="tspan117">Smart Information Flow Technologies</tspan></text></g></svg>
